<svg xmlns="http://www.w3.org/2000/svg" viewBox="0 0 141.73 141.73"><defs><style>.a{fill:#eb5a32;}.b{opacity:0.5;}.c{fill:#fff;}.d{fill:#1496dc;}</style></defs><path d="M112.35,63.59c-.31.14-.62.29-.94.42a27,27,0,0,1-2.68,1c-.33.11-.84.27-1.48.42l-.27.07a36.45,36.45,0,0,1,1.33,9.8A36.8,36.8,0,0,1,35.06,80.4c-.52,0-1,0-1.58,0a26.35,26.35,0,0,1-4.17-.32,42.48,42.48,0,1,0,83-16.54Z"/><circle class="a" cx="99.8" cy="38.15" r="14.17"/><g class="b"><path class="c" d="M93,42.46a1.5,1.5,0,0,1-1.31-.77,8.6,8.6,0,0,1,7.52-12.75,1.5,1.5,0,0,1,0,3,5.6,5.6,0,0,0-5.59,5.59,5.68,5.68,0,0,0,.69,2.71A1.5,1.5,0,0,1,93,42.46Z"/></g><path class="d" d="M47.65,52.28a14.18,14.18,0,0,1-12.23,14,14.2,14.2,0,0,1-5.76-.4A14.18,14.18,0,1,1,46.84,47.56,13.89,13.89,0,0,1,47.65,52.28Z"/><g class="b"><path class="c" d="M26.13,56.64a1.48,1.48,0,0,1-1.31-.78,8.59,8.59,0,0,1,7.51-12.74,1.5,1.5,0,0,1,0,3,5.6,5.6,0,0,0-4.89,8.29,1.5,1.5,0,0,1-.59,2A1.44,1.44,0,0,1,26.13,56.64Z"/></g><polygon points="69.52 89.25 69.52 38.1 64.08 38.1 64.08 89.25 64.08 94.58 64.08 94.64 79.21 94.64 79.21 89.25 69.52 89.25"/></svg>