<svg xmlns="http://www.w3.org/2000/svg" viewBox="0 0 704.03 129.54"><defs><style>.a{fill:#212529;}.b{fill:#1496dc;}.c{fill:#51af50;}.d{fill:#eb5a32;}.e{opacity:0.7;}.f{fill:none;stroke:#fff;stroke-linecap:round;stroke-miterlimit:10;stroke-width:3px;}</style></defs><path class="a" d="M251.77,45.28c-.31.14-.62.29-.94.42a27,27,0,0,1-2.68,1c-.33.11-.84.27-1.48.42l-.27.07a36.45,36.45,0,0,1,1.33,9.8,36.8,36.8,0,0,1-73.25,5.11c-.52,0-1,0-1.58,0a26.35,26.35,0,0,1-4.17-.32,42.48,42.48,0,1,0,83-16.54Z" transform="translate(0 -5.67)"/><path class="a" d="M595,127.8V76.49h0V52.65c0-13.36-6.48-19.76-15.76-19.76-6.24,0-11.52,3-15.92,8.72V34h-5.44V76.49h5.44V58.65c0-6.72.48-10.88,3.68-15a13.63,13.63,0,0,1,11.2-5.76c8.24,0,11.36,5.52,11.36,15.52V74.25h0v58.93h15.13V127.8Z" transform="translate(0 -5.67)"/><polygon class="a" points="208.94 65.28 208.94 14.13 203.49 14.13 203.49 65.28 203.49 70.61 203.49 70.66 218.63 70.66 218.63 65.28 208.94 65.28"/><path class="a" d="M407.5,91.69h5.68l13,30.8,13.6-30.8h1l13.68,30.8,13.2-30.8h5.68l-18.4,42.48h-1l-13.52-30.4-13.6,30.4h-1.12Z" transform="translate(0 -5.67)"/><path class="a" d="M516.42,91.69h5.35v42.48h-5.35v-7.28c-4.65,5.6-10.48,8.32-17.13,8.32-12.39,0-21.76-10.32-21.76-22.4a22.07,22.07,0,0,1,21.92-22.24,20.1,20.1,0,0,1,17,8.88ZM483.13,113c0,9.2,7.2,17.28,16.73,17.28a16.74,16.74,0,0,0,16.95-17.12c0-9.84-7.35-17.28-16.87-17.28A16.87,16.87,0,0,0,483.13,113Z" transform="translate(0 -5.67)"/><path class="a" d="M618.89,113.37c.24,9.76,6.88,16.88,16,16.88,8.88,0,13.12-5,16.24-10.16l4.56,2.4c-4.32,8.48-11,12.72-20.24,12.72-14.08,0-22.16-10.8-22.16-22.16,0-11.6,8.56-22.48,21.84-22.48,12.08,0,21.84,8.72,22,22.8Zm32.24-4.8c-2.24-8.8-8.56-12.72-15.92-12.72-7.6,0-13.28,4.08-15.76,12.72Z" transform="translate(0 -5.67)"/><path class="a" d="M672.35,99.29c4.4-5.76,9.68-8.72,15.92-8.72,9.28,0,15.76,6.4,15.76,19.76v23.84h-5.44V111.05c0-10-3.12-15.52-11.36-15.52a13.63,13.63,0,0,0-11.2,5.76c-3.2,4.16-3.68,8.32-3.68,15v17.84h-5.44V91.69h5.44Z" transform="translate(0 -5.67)"/><path class="a" d="M0,19.05H28.8v5.6h-23v18h23v5.6h-23V76.49H0Z" transform="translate(0 -5.67)"/><path class="a" d="M73.52,34h5.36V76.49H73.52V69.21A21.53,21.53,0,0,1,56.4,77.53c-12.4,0-21.76-10.32-21.76-22.4A22.07,22.07,0,0,1,56.56,32.89a20.09,20.09,0,0,1,17,8.88ZM40.24,55.29c0,9.2,7.2,17.28,16.72,17.28a16.74,16.74,0,0,0,17-17.12c0-9.84-7.36-17.28-16.88-17.28A16.86,16.86,0,0,0,40.24,55.29Z" transform="translate(0 -5.67)"/><path class="a" d="M124.62,76.49h-5.44V54.73c0-3.28-.32-6-.4-7.92a9.21,9.21,0,0,0-9.6-8.64,12.7,12.7,0,0,0-9.92,5c-3,3.92-3.6,9-3.6,15.36v18H90.22V34h5.44v7.28c3.76-5.44,8.48-8.4,14.56-8.4,6.48,0,11.12,3.36,13.44,10.24,3.76-6.8,9.36-10.24,15.6-10.24,8.8,0,14.48,6.32,14.48,18.4v25.2H148.3V53.29c0-3.12-.4-5.6-.48-7.2-.24-3.76-3.84-7.92-9.6-7.92-5.28,0-9.92,3.2-12.08,8.64-1.36,3.44-1.52,7.2-1.52,11.12Z" transform="translate(0 -5.67)"/><path class="a" d="M267.94,55.69c.24,9.76,6.88,16.88,16,16.88,8.88,0,13.12-5,16.24-10.16l4.56,2.4c-4.32,8.48-11,12.72-20.24,12.72-14.08,0-22.16-10.8-22.16-22.16,0-11.6,8.56-22.48,21.84-22.48,12.08,0,21.84,8.72,22,22.8Zm32.24-4.8c-2.24-8.8-8.56-12.72-15.92-12.72-7.6,0-13.28,4.08-15.76,12.72Z" transform="translate(0 -5.67)"/><path class="a" d="M319.78,41.61c4.4-5.76,9.68-8.72,15.92-8.72,9.28,0,15.76,6.4,15.76,19.76V76.49H346V53.37c0-10-3.12-15.52-11.36-15.52a13.63,13.63,0,0,0-11.2,5.76c-3.2,4.16-3.68,8.32-3.68,15V76.49h-5.44V34h5.44Z" transform="translate(0 -5.67)"/><path class="a" d="M357.14,34H363l14.24,30.88L391.3,34h5.84L377.7,76.49h-1Z" transform="translate(0 -5.67)"/><path class="a" d="M407.06,55.69c.24,9.76,6.88,16.88,16,16.88,8.88,0,13.12-5,16.24-10.16l4.56,2.4c-4.32,8.48-11,12.72-20.24,12.72-14.08,0-22.16-10.8-22.16-22.16,0-11.6,8.56-22.48,21.84-22.48,12.08,0,21.84,8.72,22,22.8Zm32.24-4.8c-2.24-8.8-8.56-12.72-15.92-12.72-7.6,0-13.28,4.08-15.76,12.72Z" transform="translate(0 -5.67)"/><path class="a" d="M460.26,40.17c3.2-4.64,6.64-7.28,11-7.28a8.6,8.6,0,0,1,4.88,1.44L473.22,39a6.5,6.5,0,0,0-2.88-.8c-4,0-7.6,3.44-9.2,9.28-.72,2.72-.88,7.12-.88,12.88V76.49H454.5V34h5.76Z" transform="translate(0 -5.67)"/><path class="a" d="M483.14,55.69c.23,9.76,6.88,16.88,16,16.88,8.88,0,13.12-5,16.24-10.16l4.56,2.4c-4.32,8.48-11,12.72-20.24,12.72-14.09,0-22.17-10.8-22.17-22.16,0-11.6,8.57-22.48,21.85-22.48,12.08,0,21.84,8.72,22,22.8Zm32.24-4.8c-2.24-8.8-8.56-12.72-15.92-12.72-7.6,0-13.28,4.08-15.76,12.72Z" transform="translate(0 -5.67)"/><path class="b" d="M187.07,34a14.18,14.18,0,0,1-12.23,14,14.2,14.2,0,0,1-5.76-.4,14.18,14.18,0,1,1,17.18-18.36A13.89,13.89,0,0,1,187.07,34Z" transform="translate(0 -5.67)"/><circle class="c" cx="538.26" cy="28.35" r="14.17"/><path class="a" d="M557.45,89.53c-6.32,0-11.52,3-15.92,8.72V53.55a17.88,17.88,0,0,1-3.27.31,19.59,19.59,0,0,1-2.17-.13v79.4h5.44V115.29c0-6.8.56-11,3.68-15a13.63,13.63,0,0,1,11.2-5.76c8.24,0,11.28,5.52,11.28,15.52v23.12h5.44v-24.4C573.13,96,566.65,89.53,557.45,89.53Z" transform="translate(0 -5.67)"/><circle class="d" cx="239.22" cy="14.17" r="14.17"/><g class="e"><path class="f" d="M232.46,22.66a7.1,7.1,0,0,1,6.21-10.52" transform="translate(0 -5.67)"/></g><g class="e"><path class="f" d="M532.26,35.62a6.94,6.94,0,0,1-.89-3.42,7.08,7.08,0,0,1,7.09-7.09" transform="translate(0 -5.67)"/></g><g class="e"><path class="f" d="M165.55,36.83a7.1,7.1,0,0,1,6.2-10.52" transform="translate(0 -5.67)"/></g></svg>